<svg width="16" height="18" viewBox="0 0 16 18" fill="none" xmlns="http://www.w3.org/2000/svg">
    <path fill-rule="evenodd" clip-rule="evenodd" d="M9.38547 5.95742L8 1.56657L6.61453 5.95742C6.38367 6.68905 5.76388 7.18511 5.06091 7.20089L0.842024 7.2956L4.20464 10.104C4.76493 10.572 5.00167 11.3746 4.79807 12.116L3.57613 16.5654L7.03981 13.9102C7.61695 13.4678 8.38306 13.4678 8.96019 13.9102L12.4239 16.5654L11.2019 12.116C10.9983 11.3746 11.2351 10.572 11.7954 10.104L15.158 7.2956L10.9391 7.20089C10.2361 7.18511 9.61633 6.68904 9.38547 5.95742ZM8.79393 1.26255C8.53228 0.433315 7.46772 0.433316 7.20607 1.26255L5.82059 5.65341C5.70517 6.01922 5.39527 6.26725 5.04378 6.27514L0.824898 6.36985C0.0281395 6.38774 -0.300826 7.50308 0.334221 8.03346L3.69684 10.8419C3.97698 11.0758 4.09535 11.4772 3.99355 11.8479L2.77161 16.2973C2.54084 17.1375 3.40209 17.8269 4.05622 17.3254L7.51991 14.6703C7.80847 14.449 8.19153 14.449 8.48009 14.6703L11.9438 17.3254C12.5979 17.8269 13.4592 17.1375 13.2284 16.2972L12.0064 11.8479C11.9046 11.4772 12.023 11.0758 12.3032 10.8419L15.6658 8.03346C16.3008 7.50308 15.9719 6.38774 15.1751 6.36985L10.9562 6.27514C10.6047 6.26725 10.2948 6.01922 10.1794 5.65341L8.79393 1.26255Z" fill="#FC7A3A"></path>
</svg>