<svg xmlns="http://www.w3.org/2000/svg" width="256" height="159" viewBox="0 0 256 159" fill="none">
    <path d="M162.448 16.9034H93.298V141.154H162.448V16.9034Z" fill="#797979"/>
    <path d="M97.6885 79.0289C97.6885 53.7835 109.543 31.392 127.763 16.9034C114.372 6.36619 97.469 -3.05176e-05 79.0289 -3.05176e-05C35.3435 -3.05176e-05 0 35.3435 0 79.0289C0 122.714 35.3435 158.058 79.0289 158.058C97.469 158.058 114.372 151.692 127.763 141.154C109.543 126.885 97.6885 104.274 97.6885 79.0289Z" fill="#696969"/>
    <path d="M255.746 79.0289C255.746 122.714 220.403 158.058 176.717 158.058C158.277 158.058 141.374 151.692 127.983 141.154C146.423 126.666 158.058 104.274 158.058 79.0289C158.058 53.7835 146.203 31.392 127.983 16.9034C141.374 6.36619 158.277 -3.05176e-05 176.717 -3.05176e-05C220.403 -3.05176e-05 255.746 35.563 255.746 79.0289Z" fill="#8D8D8D"/>
    <path fill-rule="evenodd" clip-rule="evenodd" d="M245.003 121.437C245 121.117 245.062 120.799 245.184 120.503C245.305 120.207 245.484 119.937 245.711 119.711C245.937 119.484 246.206 119.305 246.503 119.184C246.799 119.062 247.117 119 247.437 119.003C247.767 118.988 248.096 119.039 248.405 119.155C248.714 119.27 248.997 119.447 249.236 119.674C249.476 119.902 249.666 120.175 249.797 120.478C249.928 120.781 249.997 121.107 249.999 121.437C250.01 121.776 249.951 122.114 249.826 122.43C249.701 122.746 249.513 123.033 249.273 123.273C249.033 123.513 248.746 123.701 248.43 123.826C248.114 123.951 247.776 124.01 247.437 123.999C247.107 123.997 246.781 123.928 246.478 123.797C246.175 123.666 245.902 123.476 245.674 123.236C245.447 122.997 245.27 122.714 245.155 122.405C245.039 122.096 244.988 121.767 245.003 121.437ZM247.437 123.458C247.969 123.446 248.476 123.229 248.852 122.852C249.229 122.476 249.446 121.969 249.458 121.437C249.45 121.18 249.391 120.927 249.285 120.693C249.179 120.458 249.027 120.247 248.84 120.071C248.652 119.896 248.432 119.758 248.191 119.668C247.95 119.577 247.694 119.535 247.437 119.544C246.937 119.552 246.46 119.754 246.107 120.107C245.754 120.461 245.552 120.937 245.543 121.437C245.55 121.949 245.748 122.441 246.098 122.815C246.449 123.189 246.926 123.418 247.437 123.458V123.458ZM247.166 122.646H246.626V120.355H247.564C247.754 120.334 247.945 120.379 248.105 120.482C248.376 120.626 248.376 120.753 248.376 121.023C248.376 121.294 248.248 121.564 247.978 121.564L248.519 122.646H247.835L247.564 121.707H247.166V121.294H247.707C247.835 121.294 247.835 121.166 247.835 121.023C247.835 120.88 247.835 120.896 247.707 120.753H247.166V122.646V122.646Z" fill="#EAA94D"/>
    <path fill-rule="evenodd" clip-rule="evenodd" d="M245.003 95.5321C244.988 95.2064 245.039 94.881 245.155 94.5755C245.27 94.2701 245.447 93.9907 245.674 93.7544C245.902 93.518 246.175 93.3295 246.478 93.2001C246.781 93.0707 247.107 93.0031 247.437 93.0013C247.776 92.9904 248.114 93.0483 248.43 93.1716C248.746 93.2949 249.033 93.481 249.273 93.7182C249.513 93.9554 249.701 94.2388 249.826 94.5508C249.951 94.8628 250.01 95.1968 249.999 95.5321C249.999 96.1866 249.736 96.8143 249.267 97.2772C248.799 97.74 248.163 98 247.501 98C246.838 98 246.203 97.74 245.734 97.2772C245.266 96.8143 245.003 96.1866 245.003 95.5321V95.5321ZM247.437 97.4027C247.939 97.4027 248.421 97.2055 248.776 96.8547C249.131 96.5039 249.33 96.0282 249.33 95.5321C249.33 95.036 249.131 94.5601 248.776 94.2093C248.421 93.8585 247.939 93.6615 247.437 93.6615C246.935 93.6615 246.453 93.8585 246.098 94.2093C245.743 94.5601 245.543 95.036 245.543 95.5321C245.543 96.0282 245.743 96.5039 246.098 96.8547C246.453 97.2055 246.935 97.4027 247.437 97.4027V97.4027ZM247.166 96.601H246.626V94.4632H248.105C248.376 94.6047 248.376 94.8719 248.376 95.1391C248.357 95.2531 248.312 95.361 248.242 95.454C248.173 95.547 248.083 95.6222 247.978 95.6735L248.519 96.601H247.835L247.564 95.7993H247.166V95.4063H247.437C247.564 95.4063 247.707 95.4063 247.707 95.2648C247.707 95.1233 247.835 95.1391 247.835 94.9976C247.835 94.9811 247.831 94.9648 247.825 94.9495C247.819 94.9343 247.809 94.9203 247.797 94.9086C247.786 94.897 247.772 94.8877 247.756 94.8814C247.741 94.8751 247.724 94.8718 247.707 94.8718C247.707 94.7303 247.564 94.8718 247.437 94.8718H247.166V96.601Z" fill="white"/>
    <path fill-rule="evenodd" clip-rule="evenodd" d="M102.73 99.9482C100.686 100.57 98.5669 100.924 96.4282 101C92.4106 101 90 98.5096 90 94.0393C90.033 93.0709 90.1225 92.1051 90.2679 91.1467L90.8035 88.0531L91.2132 85.5472L94.8211 64H102.856L101.911 68.7333H107L105.803 76.622H100.714L98.5866 89.5999C98.4881 90.0314 98.4406 90.4725 98.4449 90.9147C98.4449 92.6317 99.2484 93.2814 101.265 93.2814C102.117 93.2693 102.966 93.1813 103.802 93.0184L102.73 99.9791V99.9482Z" fill="#0F0F0F"/>
    <path fill-rule="evenodd" clip-rule="evenodd" d="M128.042 99.84C125.358 100.602 122.581 100.992 119.789 101C111.021 101 106 96.3899 106 87.3051C106 76.6837 111.916 69 120.169 69C126.752 69 131 73.3541 131 80.1337C130.973 82.6692 130.673 85.1945 130.105 87.6667H113.979C113.892 88.0012 113.852 88.3458 113.858 88.6912C113.858 92.2769 116.3 94.0697 120.942 94.0697C123.848 94.0632 126.714 93.4093 129.331 92.1563L128.042 99.8249V99.84ZM123.233 81.5349V80.0283C123.301 79.5016 123.249 78.9664 123.081 78.4623C122.913 77.9582 122.633 77.4982 122.261 77.1162C121.89 76.7343 121.437 76.4401 120.935 76.2557C120.434 76.0713 119.897 76.0013 119.365 76.0508C116.786 76.0508 114.981 77.9793 114.207 81.5499L123.233 81.5349Z" fill="#0F0F0F"/>
    <path fill-rule="evenodd" clip-rule="evenodd" d="M39.5354 101H31.3458L36.101 70.9916L25.4095 101H19.7219L19.0691 71.1316L14.0497 101H6L12.4646 62H24.4771L24.7413 86.0658L32.8065 62H46L39.5354 101Z" fill="#0F0F0F"/>
    <path fill-rule="evenodd" clip-rule="evenodd" d="M58.8164 86.7175C58.3254 86.6176 57.8251 86.5722 57.3243 86.5819C52.7584 86.5819 50.4755 88.3748 50.4755 91.1921C50.4323 91.6075 50.4782 92.0275 50.6101 92.4234C50.7421 92.8193 50.957 93.1818 51.2402 93.4863C51.5234 93.7908 51.8681 94.0301 52.2512 94.188C52.6342 94.3459 53.0464 94.4186 53.4598 94.4011C57.2647 94.4011 58.7866 91.1921 58.9209 86.7175H58.8164ZM65.1878 100.488H58.3389L58.4583 97.2938C56.6827 99.7194 54.2804 101 50.1025 101C46.2976 101 43 97.5498 43 92.548C43.0166 91.2034 43.2277 89.8685 43.6267 88.5856C44.895 83.8399 49.5952 80.9021 56.817 80.7815C57.6974 80.7815 59.1 80.7816 60.3683 80.9021C60.5564 80.2363 60.642 79.5452 60.6219 78.8531C60.6219 76.8042 58.9657 76.1714 55.295 76.1714C53.0565 76.1539 50.8297 76.4997 48.6999 77.1958L47.5659 77.452L47.0585 77.5725L48.1925 70.6573C51.1709 69.6178 54.2929 69.0585 57.4437 69C64.2925 69 67.9781 72.194 67.9781 78.0395C68.056 80.0565 67.926 82.0761 67.5901 84.0659L65.8145 95.079L65.5608 97.0075L65.4414 98.5141L65.3072 99.5386L65.1878 100.488Z" fill="#0F0F0F"/>
    <path fill-rule="evenodd" clip-rule="evenodd" d="M167.175 69.3285C169.767 69.4129 172.298 70.1281 174.542 71.4104L176 63.083C175.317 62.7733 174.612 62.5124 173.891 62.3023L170.587 61.3838C169.334 61.1151 168.054 60.9867 166.772 61.0011C162.693 61.0011 160.32 61.1389 157.808 62.5319C156.006 63.7017 154.368 65.1018 152.938 66.6956L151.883 66.4354L143.446 72.2828L143.85 69.0376H135.149L130 100.357H138.313L141.337 83.5187C141.337 83.5187 142.531 81.1766 143.059 80.4571C143.575 79.7389 144.284 79.1766 145.105 78.8332C145.927 78.4899 146.83 78.379 147.711 78.513H148.378C148.1 80.491 147.965 82.4861 147.975 84.4831C147.975 94.632 153.775 101 162.74 101C165.191 100.984 167.628 100.634 169.982 99.9591L171.425 91.1265C169.309 92.3812 166.911 93.0968 164.446 93.2085C159.576 93.2085 156.691 89.5652 156.691 83.8402C156.691 75.3903 161.034 69.4051 167.237 69.4051L167.175 69.3285Z" fill="#0F0F0F"/>
    <path fill-rule="evenodd" clip-rule="evenodd" d="M237.452 62.0308L235.578 73.0106C234.837 71.6672 233.737 70.5448 232.396 69.7624C231.054 68.98 229.521 68.5667 227.959 68.5664C225.618 68.6467 223.348 69.3627 221.401 70.634C219.454 71.9053 217.909 73.6815 216.939 75.7632V75.6247L211.586 72.5492L212.121 69.2891H203.164L198 100.66H206.297L209.099 83.7443C209.099 83.7443 211.24 81.3915 211.775 80.6687C212.223 80.1037 212.789 79.6377 213.435 79.3012C214.081 78.9646 214.792 78.7651 215.522 78.7157C214.501 81.6882 214.001 84.8074 214.042 87.9424C214.042 95.7851 218.198 100.998 224.354 100.998C225.834 101.027 227.302 100.724 228.644 100.114C229.986 99.5036 231.168 98.6015 232.099 97.4767L231.706 100.552H239.577L246 62L237.452 62.0308ZM227.156 93.1401C224.354 93.1401 222.874 91.0487 222.874 86.989C222.874 80.8378 225.55 76.409 229.423 76.409C232.367 76.409 233.847 78.6388 233.847 82.5602C233.847 88.8343 231.17 93.1555 227.156 93.1555V93.1401Z" fill="#0F0F0F"/>
    <path fill-rule="evenodd" clip-rule="evenodd" d="M188.962 86.7928C188.475 86.6915 187.979 86.646 187.482 86.6573C182.956 86.6573 180.692 88.4501 180.692 91.2675C180.647 91.6834 180.691 92.1044 180.821 92.5014C180.95 92.8985 181.163 93.2621 181.445 93.5672C181.726 93.8723 182.069 94.1115 182.45 94.2685C182.831 94.4255 183.24 94.4965 183.651 94.4765C187.423 94.4765 188.932 91.2674 189.05 86.7928H188.962ZM195.249 100.488H188.34L188.592 97.2938C186.831 99.7195 184.45 101 180.293 101C176.402 101 173 97.6705 173 92.548C173 85.2561 178.414 80.7816 186.964 80.7816C187.837 80.7816 189.213 80.7816 190.352 80.9021C190.566 80.2393 190.69 79.55 190.722 78.8532C190.722 76.8042 189.095 76.1714 185.322 76.1714C183.104 76.1657 180.898 76.5114 178.784 77.1959L177.778 77.452L177.275 77.5725L178.414 70.6573C181.367 69.6166 184.462 69.0572 187.586 69C194.376 69 197.941 72.194 197.941 78.0396C198.089 80.0568 197.959 82.0852 197.556 84.0659L195.929 95.0791L195.678 97.0076L195.426 98.5142L195.293 99.5386V100.563L195.249 100.488Z" fill="#0F0F0F"/>
    <path fill-rule="evenodd" clip-rule="evenodd" d="M82.5771 76.2954C84.6626 76.3091 86.7438 76.4804 88.8017 76.8078L90 69.633C87.6191 69.3768 84.4445 69 82.5927 69C73.2558 69 70.299 73.8686 70.299 79.5511C70.299 83.259 72.0108 85.9421 76.5237 87.992C79.8227 89.4993 80.3518 89.7857 80.3518 91.2026C80.3518 93.1168 78.64 94.2172 75.4655 94.2172C72.8973 94.2146 70.3491 93.781 67.9337 92.9359L67 99.975L67.1401 100.096L68.6962 100.352C69.3939 100.519 70.1004 100.65 70.8126 100.744C72.7889 100.864 74.5007 101 75.5588 101C84.818 101 88.6617 97.5482 88.6617 90.7503C88.6617 86.5299 86.5454 83.9675 82.4371 82.1738C78.8735 80.6665 78.4688 80.3801 78.4688 78.9783C78.4688 77.5765 80.025 76.2803 82.5771 76.2803V76.2954Z" fill="#0F0F0F"/>
    <path fill-rule="evenodd" clip-rule="evenodd" d="M179 60.0131L177.498 68.5459C175.152 67.2343 172.511 66.5006 169.807 66.4088C163.345 66.4088 158.821 72.553 158.821 81.2273C158.821 87.2458 161.842 90.8443 166.899 90.8443C169.447 90.7234 171.933 90.0409 174.169 88.8486L172.651 97.79C170.203 98.5213 167.665 98.9284 165.106 99C155.768 99 150 92.4472 150 81.903C150 67.8859 157.965 58.0016 169.387 58.0016C170.729 57.9832 172.069 58.1204 173.378 58.4102L176.803 59.2117C177.901 59.6045 178.176 59.746 179 60.0131V60.0131Z" fill="white"/>
    <path fill-rule="evenodd" clip-rule="evenodd" d="M151.82 66H151.057C148.394 66 146.869 67.3223 144.445 71.1648L145.208 66.2644H137.967L133 98H141.019C143.936 78.5698 144.699 75.2561 148.499 75.2561H149.008C149.574 72.0822 150.582 69.0112 152 66.14L151.746 66H151.82Z" fill="white"/>
    <path fill-rule="evenodd" clip-rule="evenodd" d="M103.584 97.9446C101.828 98.6449 99.9716 99.0023 98.1005 99C94.1962 99 92 96.6254 92 92.0159C92.0232 91.085 92.1047 90.1568 92.244 89.2378L92.7321 86.1338L93.0909 83.635L96.3923 62H103.957L103.096 66.7492H107L106.024 74.5092H102.148L100.081 87.6858C99.9803 88.1166 99.9367 88.5609 99.9521 89.005C99.9521 90.557 100.684 91.2555 102.522 91.2555C103.22 91.3231 103.924 91.2332 104.589 90.9916L103.612 97.9756L103.584 97.9446Z" fill="white"/>
    <path fill-rule="evenodd" clip-rule="evenodd" d="M72.1783 76.7286C72.1783 80.705 74.0415 83.4807 78.4411 85.6015C81.9013 87.1609 82.4336 87.7222 82.4336 89.0477C82.4336 91.0437 80.9619 91.9637 77.6426 91.9637C75.1122 91.9492 72.599 91.5495 70.1898 90.7786L69 98.061L69.3914 98.2013L70.8631 98.4664C71.6001 98.6507 72.3579 98.7398 73.1177 98.7315C74.6174 98.9305 76.1298 99.0191 77.6426 98.9966C86.4261 98.9966 90.5439 95.6751 90.5439 88.3928C90.5439 84.0109 88.8217 81.5003 84.6882 79.5198C81.1028 77.9605 80.6957 77.5238 80.6957 76.0736C80.6957 74.3427 82.1675 73.5474 84.8292 73.5474C86.829 73.5679 88.826 73.7033 90.8102 73.9528L92 66.6549C89.5826 66.2545 87.1385 66.0356 84.6882 66C75.3723 66 72.053 70.8965 72.1626 76.7286H72.1783Z" fill="white"/>
    <path fill-rule="evenodd" clip-rule="evenodd" d="M241.73 97.6752H234.064L234.447 94.5947C233.516 95.6843 232.358 96.5543 231.054 97.1426C229.75 97.731 228.333 98.0232 226.904 97.9986C220.909 97.9986 217 92.9004 217 85.0453C217 74.5717 223.132 65.6692 230.277 65.6692C231.836 65.6787 233.368 66.0796 234.734 66.8355C236.099 67.5914 237.255 68.6782 238.096 69.9972L239.92 59H248L241.745 97.6135L241.73 97.6752ZM229.74 90.3437C233.527 90.3437 236.134 85.8924 236.134 79.7315C236.134 75.6807 234.692 73.5706 231.825 73.5706C228.176 73.5706 225.448 77.8986 225.448 84.0441C225.448 88.2335 226.889 90.3283 229.74 90.3283V90.3437Z" fill="white"/>
    <path fill-rule="evenodd" clip-rule="evenodd" d="M129.924 97.6837C127.107 98.583 124.161 99.0272 121.199 98.9987C111.733 98.9987 107 94.141 107 84.7968C107 73.9674 113.153 66 121.609 66C128.583 66 133 70.471 133 77.4482C132.981 80.1068 132.621 82.7525 131.927 85.3227H115.299C115.203 85.6229 115.161 85.9368 115.172 86.251C115.172 89.933 117.712 91.774 122.54 91.774C125.565 91.8313 128.558 91.1508 131.249 89.7937L129.924 97.6837V97.6837ZM125.191 78.887V77.3399C125.259 76.8003 125.203 76.2525 125.027 75.7368C124.851 75.2211 124.559 74.7508 124.173 74.3604C123.787 73.9699 123.317 73.6694 122.796 73.4809C122.276 73.2924 121.72 73.2207 121.167 73.2712C118.485 73.2712 116.608 75.236 115.803 78.918L125.191 78.887Z" fill="white"/>
    <path fill-rule="evenodd" clip-rule="evenodd" d="M41.472 98H33.202L38.0039 67.9916L27.2075 98H21.4641L20.8051 68.256L15.7364 98H8L14.5437 59H26.5328L26.9408 83.1902L34.9283 59H48L41.472 98Z" fill="white"/>
    <path fill-rule="evenodd" clip-rule="evenodd" d="M61.1616 84.2513C60.404 84.2513 60.0178 84.1265 59.3939 84.1265C54.9376 84.1265 52.6946 85.8424 52.6946 89.0247C52.6486 89.4287 52.6873 89.8383 52.8078 90.2249C52.9284 90.6116 53.1279 90.9659 53.3925 91.2631C53.6571 91.5603 53.9803 91.7931 54.3396 91.9454C54.6988 92.0977 55.0854 92.1656 55.4723 92.1446C58.7552 92.1446 61.0279 89.0247 61.1616 84.1889V84.2513ZM66.9697 98.4468H60.404L60.5229 95.1241C59.5325 96.4242 58.2575 97.4536 56.8065 98.1245C55.3554 98.7954 53.7715 99.0879 52.1896 98.9771C47.9115 98.9771 45 95.5297 45 90.3507C45 82.551 50.0506 78.0272 58.8889 78.0272C59.7653 78.0272 60.9091 78.1675 62.1717 78.2923C62.3505 77.6491 62.4357 76.9812 62.4243 76.3113C62.4243 74.1897 61.0279 73.3942 57.3738 73.3942C55.1619 73.3656 52.9556 73.6329 50.8081 74.1897L49.6792 74.5797L48.9216 74.7201L50.0505 67.5599C53.1104 66.5361 56.3014 66.01 59.5128 66C66.331 66 70 69.1199 70 75.3596C69.9476 77.4904 69.7341 79.6134 69.3613 81.7086L67.5936 92.987L67.3411 94.9681L67.2222 96.528L67.0885 97.7292L66.9697 98.5248V98.4468Z" fill="white"/>
    <path fill-rule="evenodd" clip-rule="evenodd" d="M191.899 84.2513C190.984 84.2513 190.581 84.1265 190.054 84.1265C185.325 84.1265 182.953 85.8424 182.953 89.0247C182.918 89.4434 182.974 89.8648 183.117 90.2595C183.26 90.6542 183.488 91.0125 183.783 91.3097C184.078 91.6068 184.434 91.8355 184.827 91.9797C185.219 92.1239 185.638 92.1802 186.054 92.1446C189.341 92.1446 191.852 89.0247 191.976 84.1889L191.899 84.2513ZM197.96 98.4468H191.061L191.201 95.1241C190.167 96.4242 188.837 97.4536 187.322 98.1245C185.808 98.7954 184.155 99.0879 182.504 98.9771C178.023 98.9771 175 95.5297 175 90.3507C175 82.551 180.271 78.0272 189.48 78.0272C190.41 78.0272 191.588 78.1675 192.782 78.2923C192.992 77.6504 193.122 76.9851 193.17 76.3113C193.17 74.1897 191.728 73.3942 187.914 73.3942C185.56 73.3662 183.211 73.6334 180.922 74.1897L179.868 74.5797L179.077 74.7201L180.271 67.5599C183.465 66.5361 186.795 66.01 190.147 66C197.263 66 200.999 69.1199 200.999 75.3596C201.017 77.4946 200.794 79.6247 200.332 81.7086L198.627 92.987L198.363 94.9681L198.1 96.528L197.96 97.7292V98.5248V98.4468Z" fill="white"/>
    <path fill-rule="evenodd" clip-rule="evenodd" d="M219.825 66H219.016C216.175 66 214.556 67.3223 212 71.1648L212.809 66.2644H205.127L200 98H208.349C211.524 78.5698 212.27 75.2561 216.286 75.2561H216.825C217.426 72.0822 218.495 69.0112 220 66.14L219.73 66H219.825Z" fill="white"/>
    <script xmlns=""/></svg>
