<svg xmlns="http://www.w3.org/2000/svg" width="65" height="46" viewBox="0 0 65 46" fill="none">
    <path fill-rule="evenodd" clip-rule="evenodd" d="M11.2623 1.17282C11.2623 0.709244 11.6383 0.333313 12.1019 0.333313H42.3241C44.6423 0.333313 46.5216 2.21263 46.5216 4.53084V32.2345C46.5216 32.6981 46.1457 33.0741 45.6821 33.0741C45.2185 33.0741 44.8426 32.6981 44.8426 32.2345V4.53084C44.8426 3.13995 43.715 2.01233 42.3241 2.01233H12.1019C11.6383 2.01233 11.2623 1.63639 11.2623 1.17282ZM4.5463 38.1111C4.5463 37.6475 4.92216 37.2716 5.3858 37.2716H12.1019C12.5654 37.2716 12.9414 37.6475 12.9414 38.1111C12.9414 38.5747 12.5654 38.9506 12.1019 38.9506H5.3858C4.92216 38.9506 4.5463 38.5747 4.5463 38.1111ZM28.0525 38.1111C28.0525 37.6475 28.4284 37.2716 28.892 37.2716H42.3241C42.7877 37.2716 43.1636 37.6475 43.1636 38.1111C43.1636 38.5747 42.7877 38.9506 42.3241 38.9506H28.892C28.4284 38.9506 28.0525 38.5747 28.0525 38.1111Z" fill="#EA6E34" stroke="#EA6E34" stroke-width="0.5"/>
    <path fill-rule="evenodd" clip-rule="evenodd" d="M-0.490738 26.358C-0.490738 25.8944 -0.114874 25.5185 0.348768 25.5185H27.213C27.6765 25.5185 28.0525 25.8944 28.0525 26.358C28.0525 26.8216 27.6765 27.1975 27.213 27.1975H0.348768C-0.114874 27.1975 -0.490738 26.8216 -0.490738 26.358Z" fill="#EA6E34" stroke="#EA6E34" stroke-width="0.5"/>
    <path fill-rule="evenodd" clip-rule="evenodd" d="M6.22531 21.321C6.22531 20.8574 6.60117 20.4814 7.06482 20.4814H30.571C31.0346 20.4814 31.4105 20.8574 31.4105 21.321C31.4105 21.7845 31.0346 22.1605 30.571 22.1605H7.06482C6.60117 22.1605 6.22531 21.7845 6.22531 21.321Z" fill="#EA6E34" stroke="#EA6E34" stroke-width="0.5"/>
    <path fill-rule="evenodd" clip-rule="evenodd" d="M2.86728 16.2839C2.86728 15.8203 3.24314 15.4444 3.70679 15.4444H27.213C27.6765 15.4444 28.0525 15.8203 28.0525 16.2839C28.0525 16.7475 27.6765 17.1234 27.213 17.1234H3.70679C3.24314 17.1234 2.86728 16.7475 2.86728 16.2839Z" fill="#EA6E34" stroke="#EA6E34" stroke-width="0.5"/>
    <path fill-rule="evenodd" clip-rule="evenodd" d="M11.2623 11.2469C11.2623 10.7833 11.6383 10.4074 12.1019 10.4074H28.892C29.3555 10.4074 29.7315 10.7833 29.7315 11.2469C29.7315 11.7105 29.3555 12.0864 28.892 12.0864H12.1019C11.6383 12.0864 11.2623 11.7105 11.2623 11.2469Z" fill="#EA6E34" stroke="#EA6E34" stroke-width="0.5"/>
    <path fill-rule="evenodd" clip-rule="evenodd" d="M44.8426 11.2469C44.8426 10.7833 45.2185 10.4074 45.6821 10.4074H53.895C55.3423 10.4074 56.6875 11.1529 57.4545 12.3802L64.3527 23.4174C64.7696 24.0845 64.9907 24.8553 64.9907 25.6421V34.7531C64.9907 37.0713 63.1114 38.9506 60.7932 38.9506H59.1142C58.6506 38.9506 58.2747 38.5747 58.2747 38.1111C58.2747 37.6475 58.6506 37.2716 59.1142 37.2716H60.7932C62.1841 37.2716 63.3117 36.144 63.3117 34.7531V25.6421C63.3117 25.1701 63.1791 24.7076 62.9289 24.3073L56.0307 13.2701C55.5705 12.5337 54.7634 12.0864 53.895 12.0864H45.6821C45.2185 12.0864 44.8426 11.7105 44.8426 11.2469Z" fill="#EA6E34" stroke="#EA6E34" stroke-width="0.5"/>
    <path fill-rule="evenodd" clip-rule="evenodd" d="M20.4969 35.5926C18.1787 35.5926 16.2994 37.4719 16.2994 39.7901C16.2994 42.1083 18.1787 43.9876 20.4969 43.9876C22.8151 43.9876 24.6945 42.1083 24.6945 39.7901C24.6945 37.4719 22.8151 35.5926 20.4969 35.5926ZM14.6204 39.7901C14.6204 36.5446 17.2514 33.9136 20.4969 33.9136C23.7425 33.9136 26.3735 36.5446 26.3735 39.7901C26.3735 43.0356 23.7425 45.6667 20.4969 45.6667C17.2514 45.6667 14.6204 43.0356 14.6204 39.7901Z" fill="#EA6E34" stroke="#EA6E34" stroke-width="0.5"/>
    <path fill-rule="evenodd" clip-rule="evenodd" d="M50.7191 35.5926C48.4009 35.5926 46.5216 37.4719 46.5216 39.7901C46.5216 42.1083 48.4009 43.9876 50.7191 43.9876C53.0373 43.9876 54.9167 42.1083 54.9167 39.7901C54.9167 37.4719 53.0373 35.5926 50.7191 35.5926ZM44.8426 39.7901C44.8426 36.5446 47.4736 33.9136 50.7191 33.9136C53.9647 33.9136 56.5957 36.5446 56.5957 39.7901C56.5957 43.0356 53.9647 45.6667 50.7191 45.6667C47.4736 45.6667 44.8426 43.0356 44.8426 39.7901Z" fill="#EA6E34" stroke="#EA6E34" stroke-width="0.5"/>
    <path fill-rule="evenodd" clip-rule="evenodd" d="M52.8966 13.7916C53.3602 13.7916 53.7361 14.1676 53.7361 14.6311V17.9892C53.7361 18.4529 54.1119 18.8287 54.5756 18.8287H57.9336C58.3972 18.8287 58.7731 19.2046 58.7731 19.6682C58.7731 20.1319 58.3972 20.5077 57.9336 20.5077H54.5756C53.1846 20.5077 52.0571 19.3802 52.0571 17.9892V14.6311C52.0571 14.1676 52.4329 13.7916 52.8966 13.7916Z" fill="#EA6E34" stroke="#EA6E34" stroke-width="0.5"/>
    <path fill-rule="evenodd" clip-rule="evenodd" d="M-0.490738 44.8271C-0.490738 44.3635 -0.114874 43.9876 0.348768 43.9876H64.1512C64.6148 43.9876 64.9907 44.3635 64.9907 44.8271C64.9907 45.2907 64.6148 45.6666 64.1512 45.6666H0.348768C-0.114874 45.6666 -0.490738 45.2907 -0.490738 44.8271Z" fill="#EA6E34" stroke="#EA6E34" stroke-width="0.5"/>
    <script xmlns=""/></svg>
