<svg xmlns="http://www.w3.org/2000/svg" width="286" height="81" viewBox="0 0 286 81" fill="none">
    <path d="M159.08 8.66998L141.08 47.67H139.25V0.169983H113.65V80.6H135.37C138.162 80.6007 140.896 79.8014 143.247 78.2968C145.599 76.7921 147.471 74.6451 148.64 72.11L166.64 33.11H168.47V80.6H194.06V0.169983H172.36C169.566 0.171934 166.831 0.973301 164.478 2.47946C162.125 3.98562 160.252 6.13368 159.08 8.66998" fill="#808080"/>
    <path d="M63.07 10.74L52.41 47.74H50.58L39.92 10.74C39.0424 7.70167 37.2039 5.02954 34.6799 3.12396C32.156 1.21838 29.0825 0.181958 25.92 0.169983H0.309998V80.61H25.9V33.08H27.73L42.35 80.61H60.64L75.26 33.08H77.09V80.61H102.68V0.169983H77.12C73.9489 0.171146 70.8641 1.20259 68.3301 3.10898C65.796 5.01537 63.95 7.69347 63.07 10.74" fill="#808080"/>
    <path d="M205.05 36.73V80.61H230.59V55H258.06C263.728 54.9962 269.256 53.2353 273.882 49.9598C278.507 46.6843 282.004 42.0552 283.89 36.71L205.05 36.73Z" fill="#808080"/>
    <path d="M258.06 0.169983H201.39C203.098 9.41066 207.988 17.7616 215.21 23.7732C222.433 29.7848 231.533 33.0776 240.93 33.08H284.93C285.74 29.0958 285.655 24.9813 284.681 21.0339C283.707 17.0866 281.867 13.4051 279.296 10.2557C276.725 7.10634 273.485 4.56772 269.813 2.82345C266.14 1.07917 262.126 0.172838 258.06 0.169983" fill="url(#paint0_linear)"/>
    <defs>
        <linearGradient id="paint0_linear" x1="201.39" y1="16.63" x2="285.48" y2="16.63" gradientUnits="userSpaceOnUse">
            <stop offset="0.01" stop-color="#707070"/>
            <stop offset="1" stop-color="#5A5A5A"/>
        </linearGradient>
    </defs>
    <script xmlns=""/></svg>
