<svg xmlns="http://www.w3.org/2000/svg" width="66" height="52" viewBox="0 0 66 52" fill="none">
    <path d="M41.2946 49.1856C36.0916 49.1856 30.8886 49.1856 25.6856 49.1856C25.162 49.1856 25.162 49.1856 25.162 49.6878C25.162 50.826 24.9807 51 23.8327 51C22.0872 51 20.3416 51 18.5961 51C17.8039 51 17.522 50.7255 17.522 49.9355C17.522 47.0431 17.5153 44.1575 17.522 41.2652C17.5287 39.5646 18.4753 38.2121 20.0664 37.6163C20.1268 37.5895 20.1939 37.5694 20.2544 37.556C20.9794 37.3752 20.9794 37.3752 20.9794 36.6455C20.9794 35.206 20.9727 33.7665 20.9861 32.327C20.9996 30.8206 21.7851 29.7025 23.2016 29.1937C23.544 29.0731 23.92 29.0062 24.2825 29.0062C29.0491 28.9928 33.8157 28.9928 38.5823 28.9995C39.502 28.9995 40.3144 29.3075 40.979 29.9569C41.1334 30.1109 41.2341 30.1109 41.3885 29.9569C42.0666 29.2874 42.8991 28.9928 43.8457 28.9928C48.525 28.9928 53.1976 28.9928 57.877 28.9928C59.4614 28.9928 60.6631 29.8498 61.1465 31.3227C61.2673 31.6843 61.3009 32.0927 61.3009 32.4743C61.321 33.9674 61.3143 35.4671 61.3009 36.9601C61.3009 37.2614 61.3479 37.3953 61.7037 37.4355C63.4962 37.6296 64.9597 39.2231 64.9732 41.0241C65 44.0571 64.9866 47.0967 64.9799 50.1296C64.9799 50.672 64.6576 50.9799 64.0803 50.9799C63.0195 50.9866 61.9521 50.9799 60.8913 50.9866C60.0521 50.9866 59.213 50.9866 58.3738 50.9866C57.6487 50.9866 57.3734 50.7121 57.3667 50.0024C57.36 49.1856 57.36 49.1856 56.5208 49.1856C51.4387 49.1856 46.3633 49.1856 41.2811 49.1856C41.2946 49.1923 41.2946 49.1856 41.2946 49.1856ZM49.673 41.4392C52.1033 41.4392 54.5269 41.4325 56.9572 41.4459C57.266 41.4459 57.3802 41.3723 57.3936 41.0442C57.4607 39.5646 58.1724 38.4732 59.5016 37.797C59.703 37.6966 59.7567 37.556 59.7567 37.3418C59.75 35.7215 59.7567 34.108 59.75 32.4877C59.7433 31.2692 59.025 30.5528 57.8031 30.5528C53.1708 30.5528 48.5384 30.5528 43.9061 30.5528C42.6775 30.5528 41.9659 31.2625 41.9659 32.481C41.9592 35.3399 41.9659 38.192 41.9592 41.0509C41.9592 41.3589 42.0465 41.4459 42.3553 41.4392C44.799 41.4325 47.236 41.4392 49.673 41.4392ZM32.7885 41.4392C35.2054 41.4459 37.6223 41.4392 40.0391 41.4459C40.301 41.4459 40.4151 41.3991 40.4151 41.1045C40.4017 38.192 40.4151 35.2796 40.4017 32.3672C40.4017 31.316 39.6632 30.5662 38.6091 30.5662C33.856 30.5595 29.0961 30.5595 24.3429 30.5662C23.3023 30.5662 22.5772 31.2692 22.5638 32.3002C22.5437 33.9741 22.5571 35.6479 22.5571 37.3217C22.5571 37.5091 22.6108 37.6163 22.8055 37.7033C24.2758 38.346 25.0545 39.4842 25.1552 41.071C25.1754 41.3924 25.2895 41.4526 25.5782 41.4526C27.9816 41.4325 30.3851 41.4392 32.7885 41.4392ZM41.2677 47.6256C41.2677 47.6323 41.2677 47.6323 41.2677 47.639C46.4908 47.639 51.7139 47.639 56.9438 47.639C57.36 47.639 57.3802 47.6256 57.3802 47.2038C57.3802 45.9317 57.3734 44.6596 57.3869 43.3875C57.3869 43.1063 57.3265 42.9992 57.0176 42.9992C46.5244 43.0059 36.0312 43.0059 25.5379 42.9925C25.2291 42.9925 25.162 43.093 25.1687 43.3809C25.1821 44.6329 25.1754 45.8782 25.1754 47.1302C25.1754 47.6323 25.1754 47.6323 25.6722 47.6323C30.8685 47.6256 36.0647 47.6256 41.2677 47.6256ZM63.429 45.0881C63.429 43.7826 63.4358 42.477 63.429 41.1714C63.4156 39.9864 62.4556 39.0022 61.3009 38.9687C59.9447 38.9285 58.9578 39.8926 58.9511 41.2852C58.9444 43.8629 58.9511 46.4406 58.9444 49.0115C58.9444 49.3262 59.0384 49.4467 59.3674 49.44C60.5892 49.4266 61.8044 49.4266 63.0262 49.44C63.3418 49.4467 63.4492 49.353 63.4492 49.0316C63.4223 47.7194 63.429 46.4004 63.429 45.0881ZM19.0929 45.1015C19.0929 46.3937 19.0929 47.6859 19.0929 48.9848C19.0929 49.44 19.0929 49.4467 19.5696 49.4467C20.59 49.4467 21.6038 49.4467 22.6242 49.4467C23.5977 49.4467 23.5977 49.4467 23.5977 48.4759C23.5977 46.079 23.6044 43.6821 23.591 41.2852C23.5843 39.6449 22.1006 38.5871 20.5699 39.1093C19.7106 39.4039 19.0996 40.2609 19.0929 41.225C19.0862 42.5105 19.0929 43.8027 19.0929 45.1015Z" fill="#EA6E34" stroke="#EA6E34" stroke-width="0.2"/>
    <path d="M6.7064 30.834C6.7064 24.9957 6.66612 19.1642 6.71983 13.3259C6.76011 8.23757 9.92889 3.68481 14.6753 1.80345C16.6625 1.01341 18.7303 0.792472 20.8384 1.20088C25.6318 2.13821 28.7267 5.05064 30.3514 9.56323C30.7139 10.5675 30.8079 11.6655 31.0093 12.7301C31.0496 12.9376 31.1033 13.0314 31.3249 13.0715C33.6478 13.4866 35.3597 14.7319 36.4339 16.8276C36.9374 17.8051 37.1455 18.8629 37.1522 19.9609C37.1522 20.2756 37.1522 20.5836 37.1522 20.8983C37.1455 21.5343 36.8434 21.849 36.2056 21.849C35.3463 21.8557 34.4802 21.8624 33.6209 21.8423C33.3121 21.8356 33.1577 21.9159 33.0234 22.2172C32.4393 23.5563 31.2443 24.2057 29.821 23.9312C28.8409 23.7437 28.1695 23.1211 27.7801 22.2172C27.6593 21.9427 27.525 21.8356 27.2162 21.8423C26.2763 21.8624 25.3364 21.849 24.3965 21.849C23.658 21.849 23.3828 21.5611 23.3694 20.8112C23.3492 19.6262 23.3962 18.4478 23.8662 17.3297C24.8195 15.0734 26.4911 13.6741 28.8879 13.1318C29.5324 12.9912 29.4719 13.1251 29.3847 12.402C29.0557 9.61679 27.8943 7.23329 25.8198 5.33184C23.4298 3.1425 20.5765 2.20517 17.354 2.70061C13.722 3.26971 11.1239 5.34523 9.45894 8.58572C8.65332 10.1524 8.26393 11.8396 8.26393 13.6138C8.26393 18.2871 8.26393 22.9604 8.25722 27.6404C8.25722 34.7373 8.25722 41.8343 8.25722 48.9312C8.25722 49.4467 8.25722 49.4467 8.76745 49.4467C10.4123 49.4467 12.0571 49.4467 13.7019 49.4467C13.9033 49.4467 14.1181 49.4467 14.2927 49.5204C14.5948 49.6476 14.7559 49.9154 14.7425 50.2435C14.7223 50.5648 14.5612 50.8193 14.239 50.9264C14.0846 50.9732 13.91 51 13.7422 51C9.82818 51.0067 5.9142 51 1.99351 51C1.63098 51 1.30202 50.9465 1.10061 50.5916C0.832069 50.1296 1.0939 49.5472 1.62426 49.4601C1.76525 49.44 1.91295 49.44 2.06064 49.44C3.45034 49.44 4.83333 49.44 6.22303 49.44C6.68626 49.44 6.69297 49.4333 6.69297 48.9714C6.69297 42.9256 6.69297 36.8798 6.69297 30.8273C6.69968 30.834 6.7064 30.834 6.7064 30.834ZM30.2574 20.289C31.9022 20.289 33.547 20.289 35.1919 20.289C35.2053 20.289 35.212 20.289 35.2254 20.289C35.494 20.3225 35.6282 20.222 35.588 19.9341C35.5477 19.6128 35.541 19.2914 35.4873 18.97C35.1449 16.7539 33.3389 14.9462 31.1235 14.6114C27.8607 14.1093 24.9873 16.5464 24.9403 19.8538C24.9336 20.2823 24.9336 20.289 25.3566 20.289C26.9879 20.289 28.6193 20.289 30.2574 20.289ZM29.3645 21.8758C29.6935 22.3043 30.056 22.4582 30.4924 22.4248C30.8616 22.398 31.1906 22.2641 31.4054 21.8758C30.7274 21.8758 30.0896 21.8758 29.3645 21.8758Z" fill="#EA6E34" stroke="#EA6E34" stroke-width="0.2"/>
    <path d="M26.1623 18.3407C26.2361 18.1733 26.2764 17.9858 26.3771 17.8318C26.8269 17.1556 27.3774 16.5798 28.0421 16.1112C28.4449 15.8233 28.8678 15.8635 29.1498 16.2049C29.4385 16.5598 29.3714 16.9749 29.0155 17.3297C28.5322 17.8051 28.0689 18.2938 27.6057 18.7893C27.3506 19.0638 27.0417 19.1843 26.7396 19.0839C26.4107 18.9633 26.2093 18.6955 26.1623 18.3407Z" fill="#EA6E34" stroke="#EA6E34" stroke-width="0.2"/>
    <script xmlns=""/></svg>
