
<svg width="50" height="64" viewBox="0 0 50 64" fill="none" xmlns="http://www.w3.org/2000/svg">
    <path d="M49.3729 17.8158C48.8247 16.1028 47.1802 15.0064 45.7412 14.0471C44.7819 13.4304 43.9596 12.8822 43.4799 12.197C43.0003 11.5118 42.7262 10.4839 42.3836 9.4561C41.9039 7.81156 41.4243 5.96146 39.9853 4.93362C38.5463 3.90578 36.6277 3.9743 34.9832 4.04283C33.8868 4.11135 32.7904 4.11135 31.9682 3.90578C31.2144 3.63169 30.3922 3.01499 29.5699 2.32976C28.268 1.2334 26.7605 0 24.9104 0C23.0602 0 21.5528 1.2334 20.1823 2.26124C19.36 2.94647 18.5378 3.56317 17.784 3.83726C16.9617 4.11135 15.9339 4.04283 14.769 4.04283C13.056 3.9743 11.2059 3.90578 9.76689 4.93362C8.32792 6.02998 7.77974 7.81156 7.3686 9.4561C7.09451 10.5525 6.82042 11.5803 6.27224 12.197C5.79258 12.8822 4.90179 13.4304 4.011 14.0471C2.57203 15.0064 0.99601 16.0343 0.379308 17.8158C-0.168872 19.4604 0.44783 21.1734 1.06453 22.818C1.47567 23.9143 1.81828 24.8737 1.81828 25.7645C1.81828 26.6552 1.40715 27.6146 1.06453 28.7109C0.44783 30.3555 -0.168872 32.0685 0.379308 33.7131C0.927488 35.4261 2.57203 36.5225 4.011 37.4133C4.97031 38.03 5.79258 38.5782 6.27224 39.2634C6.7519 39.9486 7.02599 40.9079 7.30008 42.0043C7.3686 42.2099 7.43712 42.4154 7.50565 42.621L1.95532 58.3812C1.81828 58.7923 1.8868 59.2034 2.09237 59.4775C2.29794 59.8201 2.70907 59.9572 3.12021 59.9572L9.21871 59.6146L13.7412 63.7259C13.9468 63.9315 14.2208 64 14.5635 64C14.632 64 14.769 64 14.8376 63.9315C15.2487 63.863 15.5228 63.5203 15.6598 63.1777L20.5249 49.4732C21.7583 50.4325 23.1288 51.4604 24.8418 51.4604C26.5549 51.4604 27.9253 50.5011 29.1587 49.4732L34.0238 63.1777C34.1609 63.5889 34.5035 63.863 34.8461 63.9315C34.9146 63.9315 35.0517 64 35.1202 64C35.3943 64 35.6684 63.863 35.9425 63.7259L40.465 59.6146L46.5635 59.9572C46.9746 59.9572 47.3172 59.8201 47.5913 59.4775C47.7969 59.1349 47.8654 58.7238 47.7283 58.3812L42.178 42.6895C42.2465 42.4839 42.3151 42.2784 42.3836 42.0728C42.6577 40.9764 42.9318 40.0171 43.4114 39.3319C43.8911 38.6467 44.7819 38.0985 45.6727 37.4818C47.1116 36.5225 48.6876 35.4946 49.3044 33.7816C49.8525 32.137 49.2358 30.424 48.6191 28.7794C48.208 27.6831 47.8654 26.7238 47.8654 25.833C47.8654 24.9422 48.2765 23.9143 48.6191 22.8865C49.3044 21.1734 49.9211 19.4604 49.3729 17.8158ZM14.0153 60.7794L10.4521 57.5589C10.2465 57.3533 9.90393 57.2163 9.56132 57.2848L4.76475 57.5589L8.94462 45.9101C9.15018 46.1842 9.42427 46.4582 9.76689 46.6638C11.2059 47.6916 13.056 47.6231 14.769 47.5546C15.8654 47.4861 16.9617 47.4861 17.784 47.6916C18.0581 47.7602 18.3322 47.8972 18.6063 48.1028L14.0153 60.7794ZM44.9874 57.4904L40.1909 57.2163C39.8483 57.2163 39.5742 57.2848 39.3001 57.4904L35.7369 60.7109L31.2144 47.9657C31.4885 47.8287 31.7626 47.6917 32.0367 47.5546C32.859 47.2805 33.8868 47.349 35.0517 47.4176C36.8333 47.4861 38.6149 47.5546 40.0538 46.5268C40.3964 46.3212 40.602 46.0471 40.8761 45.773L44.9874 57.4904ZM46.4264 29.5332C46.9061 30.8351 47.3857 32.0685 47.1116 32.9593C46.8375 33.9186 45.6727 34.6724 44.5078 35.4261C43.4114 36.1114 42.3151 36.8651 41.6298 37.8244C40.8761 38.8522 40.5335 40.0857 40.1909 41.3191C40.1223 41.6617 39.9853 42.0043 39.9168 42.2784C39.6427 43.1692 39.3001 44.1285 38.6834 44.5396C37.8611 45.2248 36.4907 45.1563 35.1202 45.0878C33.8183 45.0193 32.5163 44.9507 31.2829 45.3619C30.3922 45.636 29.6384 46.1842 29.0902 46.5953C28.7476 46.8009 28.4735 47.0749 28.1309 47.349C27.0346 48.2398 25.9382 49.1306 24.9104 49.1306C23.8825 49.1306 22.8547 48.2398 21.6898 47.349C21.3472 47.0749 21.0731 46.8694 20.7305 46.5953C20.1823 46.1842 19.36 45.636 18.5378 45.3619C17.784 45.0878 16.8932 45.0193 16.071 45.0193C15.5913 45.0193 15.1116 45.0193 14.7005 45.0878C13.2615 45.1563 11.9596 45.2248 11.2059 44.6767C10.5892 44.197 10.2465 43.3062 9.97246 42.4154C9.90393 42.0728 9.76689 41.7987 9.69836 41.4561C9.35575 40.2227 9.01314 38.9208 8.25939 37.9615C7.50565 36.9336 6.40929 36.2484 5.38145 35.5632C4.21657 34.8094 3.05168 34.0557 2.77759 33.0964C2.5035 32.2056 2.98316 30.9722 3.46282 29.6702C3.80543 28.2998 4.28509 27.0664 4.28509 25.7645C4.28509 24.4625 3.80543 23.1606 3.32577 21.9957C2.84612 20.6938 2.36646 19.4604 2.64055 18.5696C2.91464 17.6103 4.07952 16.8565 5.31293 16.1028C6.40929 15.4176 7.50565 14.6638 8.19087 13.7045C8.94462 12.6767 9.28723 11.3747 9.62984 10.1413C10.041 8.77088 10.3836 7.46895 11.1373 6.92077C11.8911 6.37259 13.2615 6.44111 14.632 6.50964C15.9339 6.50964 17.3044 6.50964 18.5378 6.16702C19.7026 5.75589 20.7305 5.00214 21.6898 4.17987C22.7862 3.28908 23.8825 2.39829 24.9104 2.39829C25.9382 2.39829 26.966 3.28908 28.1309 4.17987C29.0902 5.00214 30.1181 5.75589 31.2829 6.16702C32.5163 6.57816 33.8183 6.50964 35.1202 6.44111C36.5592 6.37259 37.8611 6.30407 38.6148 6.85225C39.3686 7.40043 39.7797 8.70236 40.1223 10.0728C40.465 11.3062 40.8076 12.6081 41.5613 13.636C42.3151 14.6638 43.4114 15.349 44.4393 16.0343C45.6727 16.788 46.769 17.5418 47.1116 18.5011C47.3857 19.3919 46.9061 20.6253 46.4264 21.9272C45.9468 23.1606 45.4671 24.394 45.4671 25.6959C45.4671 27.0664 45.9468 28.2998 46.4264 29.5332Z" fill="#EA6E34"/>
    <path d="M24.9106 10.6896C16.6194 10.6896 9.83563 17.4733 9.83563 25.7645C9.83563 34.0557 16.6194 40.8395 24.9106 40.8395C33.2018 40.8395 39.9855 34.0557 39.9855 25.7645C39.9855 17.4048 33.2018 10.6896 24.9106 10.6896ZM24.9106 38.4412C17.9213 38.4412 12.2339 32.7538 12.2339 25.7645C12.2339 18.7752 17.9213 13.0879 24.9106 13.0879C31.8999 13.0879 37.5872 18.7752 37.5872 25.7645C37.5872 32.7538 31.8999 38.4412 24.9106 38.4412Z" fill="#EA6E34"/>
</svg>
