
<svg width="16" height="18" viewBox="0 0 16 18" fill="none" xmlns="http://www.w3.org/2000/svg">
<path d="M7.20607 1.26255C7.46772 0.433317 8.53228 0.433315 8.79393 1.26255L10.1794 5.65341C10.2948 6.01922 10.6047 6.26725 10.9562 6.27514L15.1751 6.36985C15.9719 6.38774 16.3008 7.50308 15.6658 8.03346L12.3032 10.8419C12.023 11.0758 11.9046 11.4772 12.0064 11.8479L13.2284 16.2972C13.4592 17.1375 12.5979 17.8269 11.9438 17.3254L8.4801 14.6703C8.19153 14.449 7.80847 14.449 7.51991 14.6703L4.05622 17.3254C3.40209 17.8269 2.54084 17.1375 2.77161 16.2973L3.99355 11.8479C4.09535 11.4772 3.97698 11.0758 3.69684 10.8419L0.334221 8.03346C-0.300826 7.50308 0.0281395 6.38774 0.824898 6.36985L5.04378 6.27514C5.39527 6.26725 5.70517 6.01922 5.82059 5.65341L7.20607 1.26255Z" fill="#FC7A3A"></path>
</svg>