
<svg width="66" height="64" viewBox="0 0 66 64" fill="none" xmlns="http://www.w3.org/2000/svg">
    <path d="M1.00001 27.8699C1.00001 26.3047 1.00001 24.7465 1.00001 23.1813C1.00001 22.2987 1.3744 21.9333 2.26877 21.9333C3.80793 21.9333 5.34016 21.9264 6.87932 21.9402C7.17745 21.9402 7.28145 21.8299 7.38544 21.561C7.88463 20.3061 8.40462 19.0581 8.95234 17.817C9.0702 17.5412 9.06327 17.3826 8.84834 17.1688C7.75983 16.107 6.68519 15.0314 5.61056 13.9558C4.94497 13.2938 4.94497 12.8112 5.60362 12.1562C7.80837 9.96354 10.0131 7.77092 12.2179 5.5783C12.8765 4.92328 13.3826 4.92328 14.0482 5.5852C15.1298 6.65393 16.2114 7.72266 17.2791 8.80517C17.4871 9.01202 17.6465 9.03961 17.91 8.9017C19.1094 8.26047 20.3643 7.72955 21.6747 7.35722C21.9867 7.26758 22.0837 7.11589 22.0768 6.79183C22.0629 5.3094 22.0699 3.82697 22.0699 2.34454C22.0699 2.13769 22.0768 1.93084 22.1184 1.73088C22.1947 1.35855 22.4443 1.13102 22.8117 1.04138C22.9989 0.993116 23.2 0.993116 23.3941 0.993116C26.4794 0.993116 29.5646 0.986221 32.6499 0.993116C32.8995 0.993116 33.1699 1.00001 33.3986 1.09654C33.8632 1.2896 33.988 1.7102 33.988 2.17216C33.988 3.72354 33.9949 5.27492 33.981 6.8263C33.981 7.109 34.0573 7.26069 34.3416 7.34343C35.6797 7.71576 36.9484 8.26736 38.1687 8.91549C38.4113 9.03961 38.5569 9.01202 38.7372 8.82586C39.8187 7.73645 40.9073 6.66082 41.9888 5.5852C42.6475 4.93017 43.1675 4.93017 43.8261 5.5852C46.0239 7.77092 48.2217 9.95664 50.4195 12.1424C51.0782 12.7974 51.0782 13.3145 50.4195 13.9695C49.3657 15.0176 48.3257 16.0725 47.2511 17.0999C46.9668 17.3757 46.946 17.5894 47.1332 17.9273C47.7711 19.0719 48.2703 20.2854 48.6308 21.5472C48.714 21.823 48.8319 21.9471 49.1577 21.9471C50.6969 21.9264 52.2291 21.9333 53.7683 21.9402C54.6626 21.9402 55.0301 22.3056 55.0301 23.1951C55.0301 24.8982 55.037 26.5943 55.0301 28.2974C55.0301 29.2903 54.4824 29.6833 53.5187 29.442C51.0713 28.8214 48.6031 28.7249 46.1002 29.1041C44.4085 29.3592 42.8069 29.8764 41.247 30.559C40.4358 30.9175 39.6524 30.3797 39.7356 29.504C39.8396 28.456 39.902 27.401 39.7494 26.3392C39.3612 23.5812 38.1825 21.2231 36.1927 19.2718C34.8269 17.9411 33.2253 16.9758 31.395 16.4173C29.5577 15.8519 27.6857 15.7071 25.786 16.0381C22.472 16.6103 19.8443 18.2858 17.8961 20.9887C16.8007 22.5125 16.1212 24.2224 15.8508 26.0841C15.6428 27.5527 15.6567 29.0214 15.9964 30.4624C16.7452 33.6755 18.5201 36.1853 21.3003 37.9849C22.8533 38.9916 24.5658 39.5845 26.4031 39.7914C27.6303 39.9293 28.8713 39.8948 30.0915 39.6328C30.3065 39.5845 30.5214 39.557 30.7432 39.5432C31.4227 39.5087 31.9011 40.0258 31.7624 40.6877C31.6584 41.1773 31.4504 41.6531 31.3464 42.1426C31.1246 43.1975 30.875 44.2525 30.7571 45.3212C30.5699 47.0381 30.6393 48.7687 30.9998 50.4649C31.2078 51.4302 31.5059 52.3679 31.7763 53.3194C32.012 54.1537 31.5822 54.7398 30.7086 54.7398C28.2334 54.7467 25.7652 54.7398 23.2901 54.7398C22.4304 54.7398 22.0629 54.3813 22.056 53.5263C22.0491 52.0301 22.0421 50.5407 22.0629 49.0445C22.0699 48.6515 21.9728 48.4584 21.5638 48.3412C20.2673 47.9689 19.0193 47.4449 17.8406 46.7898C17.6188 46.6657 17.4801 46.7071 17.3137 46.8795C16.2183 47.9827 15.1159 49.0721 14.0135 50.1684C13.3826 50.7958 12.8626 50.7958 12.2248 50.1684C10.0131 47.9689 7.80143 45.7694 5.58976 43.5699C4.93804 42.9217 4.94497 42.4253 5.60362 41.7703C6.67826 40.7015 7.7529 39.619 8.84141 38.5641C9.07713 38.3365 9.08407 38.1642 8.93154 37.8884C8.27289 36.7024 7.76677 35.4475 7.37158 34.1444C7.28838 33.8755 7.15665 33.7789 6.87932 33.7789C5.37483 33.7858 3.87727 33.7858 2.37277 33.7858C2.24797 33.7858 2.11624 33.7858 1.99145 33.772C1.3328 33.7031 0.993073 33.3446 0.993073 32.6826C1.00001 31.0899 1.00001 29.4764 1.00001 27.8699ZM3.01062 23.9191C2.99675 24.057 2.98289 24.1604 2.98289 24.2638C2.98289 26.6633 2.98289 29.0696 2.97596 31.4691C2.97596 31.7518 3.05915 31.8483 3.35035 31.8414C4.85484 31.8276 6.3524 31.8345 7.8569 31.8414C8.52941 31.8414 8.83447 32.069 9.0078 32.7033C9.49312 34.4684 10.1795 36.1577 11.1016 37.7436C11.5037 38.4331 11.4344 38.764 10.8659 39.3294C9.83978 40.3568 8.81367 41.3842 7.7737 42.3977C7.56571 42.5977 7.53104 42.7287 7.7529 42.9493C9.45846 44.6317 11.1571 46.321 12.8488 48.0172C13.0568 48.224 13.1816 48.2171 13.3826 48.0103C14.4295 46.9553 15.4834 45.9073 16.5372 44.8592C17.0295 44.3697 17.4039 44.3007 18.0001 44.6386C19.6086 45.5556 21.3072 46.2589 23.096 46.7485C23.8448 46.9553 24.025 47.2311 24.032 48.0241C24.032 49.4582 24.0389 50.8993 24.025 52.3334C24.025 52.6575 24.1082 52.7678 24.4479 52.7678C25.994 52.754 27.5471 52.7609 29.0932 52.7609C29.211 52.7609 29.3358 52.7471 29.4953 52.7402C28.4622 49.0928 28.4206 45.4798 29.3774 41.7703C26.5071 42.0392 23.8101 41.5841 21.2934 40.2672C18.7697 38.9502 16.8145 37.0472 15.4418 34.565C14.069 32.0828 13.5074 29.4075 13.7778 26.5943C14.3671 20.3268 19.151 14.9004 26.0287 14.004C29.0446 13.611 31.9427 14.135 34.5773 15.6519C39.375 18.4099 41.7115 22.6435 41.8779 28.1319C41.9819 28.1043 42.0374 28.0905 42.0928 28.0768C43.8746 27.4493 45.7119 27.0632 47.5978 26.9391C49.2894 26.8288 50.9673 26.9322 52.6312 27.2425C53.0195 27.3114 53.0541 27.2838 53.0541 26.8977C53.0541 26.0358 53.0403 25.174 53.0611 24.3121C53.068 23.9811 52.9432 23.9122 52.6382 23.9122C51.1614 23.926 49.6777 23.9191 48.2009 23.9191C47.5146 23.9191 47.161 23.657 46.9946 23.0158C46.537 21.2645 45.8437 19.6028 44.9424 18.0376C44.5402 17.3343 44.5957 16.9827 45.1642 16.4173C46.1834 15.3968 47.2026 14.3832 48.2217 13.3697C48.3188 13.2731 48.402 13.1697 48.4644 13.1008C46.5855 11.2322 44.7344 9.39125 42.8693 7.5296C42.7861 7.60544 42.6821 7.69508 42.592 7.78471C41.5798 8.79138 40.5675 9.79806 39.5484 10.8047C38.966 11.3839 38.6054 11.4391 37.8913 11.0323C36.3244 10.1359 34.6674 9.45331 32.9133 8.99823C32.2547 8.82586 31.9912 8.48111 31.9912 7.81229C31.9912 6.32986 31.9843 4.84743 31.9982 3.365C31.9982 3.06852 31.9219 2.96509 31.6099 2.96509C29.2318 2.97888 26.8468 2.97888 24.4687 2.96509C24.1429 2.96509 24.025 3.06162 24.032 3.39948C24.0458 4.86812 24.0458 6.34365 24.0389 7.81229C24.0389 8.488 23.7893 8.82586 23.1514 8.99134C21.3766 9.45331 19.6987 10.1428 18.111 11.053C17.4385 11.4391 17.0572 11.377 16.5025 10.8323C15.4626 9.80495 14.4226 8.77759 13.3965 7.73645C13.1816 7.51581 13.0637 7.51581 12.8488 7.73645C11.164 9.42573 9.47232 11.1012 7.78063 12.7836C7.6905 12.8732 7.61424 12.9629 7.52411 13.0663C7.6281 13.1835 7.7113 13.28 7.80143 13.3628C8.82754 14.3901 9.86058 15.4106 10.8867 16.438C11.4275 16.9827 11.4968 17.3205 11.1224 17.9687C10.1934 19.5683 9.50699 21.2576 9.0078 23.0365C8.82061 23.7053 8.50861 23.9191 7.7945 23.926C6.33854 23.926 4.88257 23.926 3.42661 23.926C3.30181 23.9191 3.17008 23.9191 3.01062 23.9191Z" fill="#EA6E34"/>
    <path d="M48.9636 31.1037C49.8441 31.1037 50.7177 31.0968 51.5982 31.1037C52.4441 31.1106 52.8115 31.4829 52.8185 32.331C52.8254 33.055 52.8254 33.779 52.8185 34.5029C52.8185 34.7098 52.8739 34.8339 53.0958 34.9098C53.6366 35.1097 54.1635 35.3441 54.6904 35.5717C54.8845 35.6544 55.0093 35.5993 55.148 35.4614C55.6611 34.9442 56.1741 34.434 56.6941 33.9238C57.3181 33.3101 57.8173 33.3032 58.4274 33.91C59.6823 35.1511 60.9303 36.3922 62.1782 37.6402C62.7675 38.2263 62.7606 38.7434 62.1713 39.3432C61.6582 39.8604 61.1521 40.3706 60.6252 40.8739C60.4449 41.0463 60.4311 41.198 60.5281 41.4186C60.75 41.9082 60.9511 42.4115 61.1452 42.908C61.2284 43.1148 61.3254 43.2113 61.575 43.2044C62.3169 43.1838 63.0518 43.1975 63.7937 43.1975C64.6118 43.2044 65 43.5975 65.007 44.4111C65.007 46.1693 65.007 47.9275 65.007 49.6857C65.007 50.4994 64.6118 50.8855 63.7937 50.8924C63.0518 50.8924 62.3169 50.8993 61.575 50.8855C61.3532 50.8786 61.2422 50.9544 61.166 51.1544C60.958 51.6784 60.75 52.1955 60.5212 52.7127C60.4241 52.9264 60.4727 53.0712 60.6321 53.2229C61.1521 53.7262 61.6652 54.2433 62.1782 54.7536C62.7606 55.3397 62.7675 55.8775 62.1852 56.4566C60.9303 57.7115 59.6754 58.9595 58.4135 60.2075C57.845 60.766 57.2973 60.7591 56.7218 60.2006C56.1949 59.6835 55.668 59.1664 55.1549 58.6355C54.9885 58.47 54.8568 58.4493 54.6419 58.5527C54.1427 58.7872 53.6296 59.0009 53.1096 59.1871C52.8947 59.2629 52.8254 59.3801 52.8323 59.5939C52.8393 60.3041 52.8393 61.0211 52.8323 61.7313C52.8254 62.6346 52.4649 63 51.5428 63C49.8233 63 48.097 63.0069 46.3776 63C45.4485 63 45.1088 62.6553 45.1088 61.7313C45.1088 61.0418 45.1019 60.3523 45.1088 59.6628C45.1157 59.4146 45.0533 59.2698 44.7899 59.1802C44.2699 59.0009 43.7638 58.7803 43.2576 58.5458C43.0496 58.4493 42.9179 58.4838 42.7723 58.6355C42.2593 59.1595 41.7323 59.6835 41.2123 60.2006C40.63 60.7798 40.0822 60.7798 39.4999 60.2006C38.2588 58.9664 37.0109 57.7322 35.7768 56.498C35.1597 55.8844 35.1666 55.3534 35.7768 54.7467C36.2898 54.2296 36.8029 53.7193 37.3228 53.216C37.4754 53.0712 37.51 52.9471 37.413 52.7402C37.1772 52.23 36.9623 51.7129 36.7682 51.182C36.6919 50.9751 36.581 50.8993 36.3661 50.8993C35.6173 50.9062 34.8616 50.9062 34.1128 50.8993C33.3363 50.8924 32.9342 50.5063 32.9342 49.734C32.9272 47.9551 32.9272 46.1693 32.9342 44.3904C32.9411 43.6044 33.3432 43.2182 34.1475 43.2113C34.8546 43.2044 35.5549 43.1975 36.2621 43.2182C36.5533 43.2251 36.7127 43.1493 36.8098 42.8459C36.9762 42.3495 37.1911 41.8599 37.4199 41.3911C37.517 41.1842 37.4823 41.0601 37.3298 40.9153C36.8029 40.4051 36.2759 39.8811 35.7629 39.357C35.1805 38.771 35.1805 38.24 35.7629 37.654C37.0178 36.3991 38.2727 35.1511 39.5345 33.9031C40.11 33.3377 40.6438 33.3446 41.2193 33.9169C41.7393 34.4271 42.2593 34.9304 42.7584 35.4545C42.9456 35.6475 43.0982 35.6544 43.3339 35.5441C43.8261 35.3166 44.3253 35.1097 44.8315 34.9235C45.0533 34.8408 45.1296 34.7167 45.1227 34.4892C45.1088 33.7445 45.1157 32.9929 45.1227 32.2483C45.1296 31.4967 45.4901 31.1244 46.2458 31.1175C47.1402 31.0968 48.0554 31.1037 48.9636 31.1037ZM57.5191 35.8268C56.9714 36.3922 56.4376 36.9507 55.8898 37.4885C55.4739 37.9022 55.0925 37.9849 54.5725 37.7229C53.6158 37.2334 52.6313 36.8266 51.6052 36.5025C51.0228 36.3163 50.8425 36.0267 50.8356 35.42C50.8286 34.7787 50.8148 34.1306 50.8425 33.4894C50.8494 33.1722 50.7524 33.0619 50.4335 33.0688C49.442 33.0826 48.4436 33.0826 47.4522 33.0688C47.1679 33.0619 47.0639 33.1515 47.0709 33.4411C47.0847 34.0755 47.0778 34.7029 47.0709 35.3372C47.0639 36.013 46.8767 36.3232 46.2389 36.5232C45.2336 36.8404 44.2699 37.2403 43.3408 37.7229C42.8139 37.9918 42.4395 37.916 42.0166 37.5092C41.5243 37.0403 41.046 36.5577 40.5745 36.0681C40.415 35.9095 40.3041 35.8682 40.1238 36.0474C39.3889 36.7921 38.6471 37.5299 37.8914 38.2607C37.7042 38.44 37.7458 38.5503 37.9122 38.7089C38.3836 39.164 38.8481 39.6259 39.3127 40.0948C39.791 40.5706 39.8673 40.936 39.5484 41.5221C39.0561 42.4391 38.6748 43.3906 38.3628 44.3766C38.1826 44.942 37.8567 45.1695 37.2535 45.1695C36.581 45.1764 35.9154 45.1764 35.2429 45.1695C34.9794 45.1626 34.8754 45.2385 34.8754 45.5143C34.8893 46.5278 34.8893 47.5345 34.8754 48.5481C34.8754 48.817 34.9517 48.9135 35.229 48.9066C35.9085 48.8928 36.5949 48.8928 37.2743 48.9066C37.8428 48.9135 38.1895 49.1548 38.3559 49.6995C38.6609 50.6924 39.0492 51.6439 39.5415 52.5541C39.8534 53.1401 39.7841 53.5056 39.3127 53.9813C38.8481 54.4433 38.3906 54.9122 37.9122 55.3672C37.7319 55.5396 37.7111 55.6568 37.8983 55.843C38.6401 56.567 39.382 57.2909 40.103 58.0287C40.2972 58.2218 40.4081 58.1873 40.5745 58.0149C41.039 57.5323 41.5174 57.0634 41.9958 56.6014C42.4395 56.174 42.807 56.0912 43.3408 56.3739C44.2629 56.8566 45.2197 57.2427 46.2112 57.5598C46.8698 57.7667 47.057 58.0701 47.0639 58.7665C47.0709 59.4008 47.0709 60.0283 47.0639 60.6626C47.057 60.9246 47.1471 61.028 47.4245 61.028C48.4436 61.0142 49.4559 61.0211 50.475 61.028C50.7385 61.028 50.8494 60.9453 50.8425 60.6695C50.8286 60.0145 50.8356 59.3594 50.8425 58.7044C50.8494 58.0563 51.0297 57.7736 51.6398 57.5736C52.5966 57.2634 53.5326 56.9117 54.42 56.436C55.0995 56.0705 55.4461 56.1395 55.9938 56.6911C56.5069 57.2013 57.0061 57.7253 57.5122 58.2425C57.5954 58.1873 57.637 58.1666 57.6717 58.1321C58.4551 57.353 59.2386 56.5739 60.0289 55.8016C60.1884 55.643 60.1399 55.5327 60.0081 55.4017C59.5159 54.9191 59.0236 54.4295 58.5383 53.94C58.1778 53.5745 58.0599 53.1401 58.3026 52.6851C58.8087 51.7267 59.2247 50.7407 59.5506 49.7064C59.7308 49.1273 60.0775 48.9273 60.7084 48.9204C61.3532 48.9135 62.0049 48.9066 62.6497 48.9204C62.9062 48.9273 63.0171 48.8652 63.0171 48.5825C63.0033 47.5621 63.0102 46.5347 63.0102 45.5143C63.0102 45.4177 62.9894 45.3212 62.9755 45.1833C62.199 45.1833 61.4502 45.1833 60.7015 45.1833C60.0567 45.1833 59.717 44.9696 59.5367 44.3697C59.2386 43.3906 58.8434 42.4529 58.365 41.5427C58.053 40.9498 58.1293 40.5912 58.5938 40.1155C59.0306 39.6742 59.4674 39.226 59.918 38.8054C60.1537 38.5848 60.1815 38.4469 59.9319 38.2056C59.2108 37.523 58.5244 36.8128 57.8242 36.1164C57.741 36.0198 57.6509 35.9509 57.5191 35.8268Z" fill="#EA6E34"/>
    <path d="M17.5425 27.8561C17.5356 23.595 20.2742 19.7062 24.3232 18.3134C27.7689 17.1275 30.979 17.6377 33.9256 19.7683C34.5634 20.2302 34.5981 21.0025 34.0227 21.4231C33.7037 21.6575 33.3501 21.6575 33.0104 21.492C32.7816 21.3817 32.5736 21.2369 32.3656 21.099C30.7294 19.982 28.8921 19.4925 26.9439 19.7269C23.5674 20.1337 21.1824 21.954 20.0177 25.1395C18.5201 29.2351 20.5377 33.6686 24.5589 35.3924C28.8644 37.2334 33.988 34.9856 35.4994 30.5935C36.2343 28.4629 36.1165 26.3806 35.1736 24.3328C35.0488 24.057 34.924 23.7536 34.9032 23.4571C34.8754 23.0365 35.229 22.6504 35.6242 22.5539C36.0887 22.4435 36.5533 22.6159 36.7474 23.0779C37.101 23.9191 37.4754 24.7672 37.6972 25.6497C38.037 27.008 38.0439 28.3939 37.7666 29.7867C37.3575 31.8553 36.3938 33.6204 34.8893 35.0959C33.468 36.4956 31.7624 37.4195 29.8004 37.7919C26.9092 38.3366 24.2261 37.8126 21.8064 36.0957C19.983 34.7994 18.7281 33.0757 18.0209 30.9658C17.6951 29.966 17.5564 28.918 17.5425 27.8561Z" fill="#EA6E34"/>
    <path d="M48.818 55.5396C44.1104 55.5327 40.2556 51.706 40.2625 47.0312C40.2695 42.3564 44.1451 38.5227 48.8319 38.5503C53.5603 38.5779 57.3805 42.3908 57.3597 47.0656C57.3458 51.7405 53.5048 55.5465 48.818 55.5396ZM55.3698 47.0519C55.3698 43.4871 52.4371 40.5499 48.8319 40.5292C45.2544 40.5016 42.2454 43.4802 42.2454 47.045C42.2454 50.6097 45.2405 53.5814 48.825 53.5745C52.4094 53.5607 55.3698 50.6166 55.3698 47.0519Z" fill="#EA6E34"/>
</svg>
